{"title":"Thillalangadi _Sol pechu  tamile Video720 song","uid":7313174,"size":130088960,"categoryP":"video","categoryS":"music_videos","magnet":"?xt=urn:btih:8473f991fc21f81d48472968292a69509d6b7d38&amp;dn=Thillalangadi+_Sol+pechu++tamile+Video720+song&amp;tr=udp%3A%2F%2Ftracker.openbittorrent.com%3A80&amp;tr=udp%3A%2F%2Fopen.demonii.com%3A1337&amp;tr=udp%3A%2F%2Ftracker.coppersurfer.tk%3A6969&amp;tr=udp%3A%2F%2Fexodus.desync.com%3A6969","seeders":1,"leechers":0,"uploader":"hemzkv","files":1,"time":1338404088,"description":"Thillalangadi _Sol pechu  tamile Video720 song\n.................................................................................................\n\nFormat                         : MPEG-PS\nFile size                      : 124 MiB\nDuration                       : 4mn 16s\nOverall bit rate mode          : Variable\nOverall bit rate               : 4 054 Kbps\n\nVideo\nID                             : 224 (0xE0)\nFormat                         : MPEG Video\nFormat version                 : Version 2\nFormat profile                 : Main@Main\nFormat settings, BVOP          : Yes\nFormat settings, Matrix        : Custom\nFormat settings, GOP           : M=3, N=15\nDuration                       : 4mn 16s\nBit rate mode                  : Variable\nBit rate                       : 3 749 Kbps\nMaximum bit rate               : 8 000 Kbps\nWidth                          : 720 pixels\nHeight                         : 576 pixels\nDisplay aspect ratio           : 4:3\nFrame rate                     : 25.000 fps\nStandard                       : PAL\nColor space                    : YUV\nChroma subsampling             : 4:2:0\nBit depth                      : 8 bits\nScan type                      : Interlaced\nScan order                     : Bottom Field First\nCompression mode               : Lossy\nBits/(Pixel*Frame)             : 0.362\nStream size                    : 115 MiB (92%)\n\nAudio\nID                             : 189 (0xBD)-128 (0x80)\nFormat                         : AC-3\nFormat/Info                    : Audio Coding 3\nMode extension                 : CM (complete main)\nMuxing mode                    : DVD-Video\nDuration                       : 4mn 16s\nBit rate mode                  : Constant\nBit rate                       : 224 Kbps\nChannel(s)                     : 2 channels\nChannel positions              : Front: L R\nSampling rate                  : 48.0 KHz\nBit depth                      : 16 bits\nCompression mode               : Lossy\nDelay relative to video        : -192ms\nStream size                    : 6.85 MiB (6%)\n","torrent":{"xt":"urn:btih:8473f991fc21f81d48472968292a69509d6b7d38","amp;dn":"Thillalangadi+_Sol+pechu++tamile+Video720+song","amp;tr":["udp%3A%2F%2Ftracker.openbittorrent.com%3A80","udp%3A%2F%2Fopen.demonii.com%3A1337","udp%3A%2F%2Ftracker.coppersurfer.tk%3A6969","udp%3A%2F%2Fexodus.desync.com%3A6969"],"infoHash":"8473f991fc21f81d48472968292a69509d6b7d38","infoHashBuffer":{"type":"Buffer","data":[132,115,249,145,252,33,248,29,72,71,41,104,41,42,105,80,157,107,125,56]},"announce":[],"urlList":[]}}